HIERARCHY
ROOT Hips
{
  OFFSET 1.44925e-005 102.336 -0.101585
  CHANNELS 6 Xposition Yposition Zposition Zrotation Xrotation Yrotation
  JOINT RightUpLeg
  {
    OFFSET -8.9458 -8.66707 0.101652
    CHANNELS 3 Zrotation Xrotation Yrotation
    JOINT RightLeg
    {
      OFFSET 0 -44.4227 1.3727
      CHANNELS 3 Zrotation Xrotation Yrotation
      JOINT RightFoot
      {
        OFFSET 0.253549 -42.0924 -1.46059
        CHANNELS 3 Zrotation Xrotation Yrotation
        JOINT RightToes
        {
          OFFSET 0.04 -4.41509 8.4991
          CHANNELS 3 Zrotation Xrotation Yrotation
          End Site
          {
            OFFSET -0.08 -0.137448 9.77979
          }
        }
      }
    }
  }
  JOINT Spine
  {
    OFFSET 0 11.8905 0
    CHANNELS 3 Zrotation Xrotation Yrotation
    JOINT Spine1
    {
      OFFSET 0 25.6574 0.127663
      CHANNELS 3 Zrotation Xrotation Yrotation
      JOINT HEad
      {
        OFFSET 0 8.73416 0.011341
        CHANNELS 3 Zrotation Xrotation Yrotation
        End Site
        {
          OFFSET -0.29 12.7742 2.51395
        }
      }
      JOINT LeftShoulder1
      {
        OFFSET 8.99 -0.362252 -0.22
        CHANNELS 3 Zrotation Xrotation Yrotation
        JOINT LeftArm
        {
          OFFSET 10.2827 -0.00337999 0.322123
          CHANNELS 3 Zrotation Xrotation Yrotation
          JOINT LeftForeArm
          {
            OFFSET 26.2597 0.099144 -1.42434
            CHANNELS 3 Zrotation Xrotation Yrotation
            JOINT LeftHand
            {
              OFFSET 22.0902 0.085362 1.02216
              CHANNELS 3 Zrotation Xrotation Yrotation
              End Site
              {
                OFFSET 13.419 -0.6 1.50291
              }
            }
          }
        }
      }
      JOINT RightShoulder
      {
        OFFSET -8.99 -0.362252 -0.22
        CHANNELS 3 Zrotation Xrotation Yrotation
        JOINT RightArm
        {
          OFFSET -10.2827 -0.00338 0.322123
          CHANNELS 3 Zrotation Xrotation Yrotation
          JOINT RightForeArm
          {
            OFFSET -26.364 0.099144 -1.42434
            CHANNELS 3 Zrotation Xrotation Yrotation
            JOINT RightHand
            {
              OFFSET -22.0324 0.085362 1.02216
              CHANNELS 3 Zrotation Xrotation Yrotation
              End Site
              {
                OFFSET -13.3284 -0.6 1.50291
              }
            }
          }
        }
      }
    }
  }
  JOINT LeftUpLeg
  {
    OFFSET 8.9458 -8.66707 0.101652
    CHANNELS 3 Zrotation Xrotation Yrotation
    JOINT LeftLeg
    {
      OFFSET 0 -44.4227 1.3727
      CHANNELS 3 Zrotation Xrotation Yrotation
      JOINT LeftFoot
      {
        OFFSET -0.253549 -42.0924 -1.46059
        CHANNELS 3 Zrotation Xrotation Yrotation
        JOINT LeftToes
        {
          OFFSET -0.04 -4.41509 8.4991
          CHANNELS 3 Zrotation Xrotation Yrotation
          End Site
          {
            OFFSET 0.08 -0.047448 9.77979
          }
        }
      }
    }
  }
}
MOTION
Frames:	12
Frame Time:	0.0333333
-8.73544 104.927 38.8824 2.72092 4.86242 178.955 -10.2722 7.83959 -8.70626 0.891758 8.72976 -9.80034 14.5792 -7.33447 -0.206502 0.0462048 0.000530889 0.662642 2.09137 -8.71617 0.34538 0.47251 10.4543 0.0496635 -0.753828 8.45288 1.33293 -22.6827 1.09055 -0.294175 -43.2666 -27.1665 -16.2669 -6.80552 42.8587 -0.929234 12.221 9.06782 -2.9866 32.8217 4.31375 7.01087 24.1271 -39.9117 0.846286 2.45394 35.3452 4.9902 -41.9865 9.97868 -5.6476 19.2191 3.38996 11.3503 -1.71318 10.5365 -4.88933 -14.7346 -4.89399 0.370442 -1.32991e-009 8.75243e-006 -1.47218e-008 
-8.73464 104.927 38.8914 2.75864 4.87152 178.944 -10.2229 7.81883 -8.68222 0.882944 8.77561 -9.83597 14.4555 -7.35773 -0.206512 0.0462048 0.000530889 0.662642 2.14205 -8.68765 0.342832 0.47121 10.4159 0.0521617 -0.757136 8.4705 1.27273 -22.6902 1.09055 -0.301877 -43.2498 -27.1698 -16.2994 -6.81408 43.1198 -0.89979 12.37 9.0194 -3.36604 32.8233 4.31394 6.98952 24.1303 -39.8509 0.811267 2.43109 35.5907 5.06837 -42.2897 9.7867 -5.12847 19.2551 3.40208 11.3605 -1.69923 10.5364 -4.89497 -14.778 -4.89776 0.370444 -1.32991e-009 8.75243e-006 -1.47218e-008 
-8.72907 104.927 38.9039 2.81611 4.89519 178.948 -10.1486 7.82261 -8.65392 0.886924 8.80899 -9.90019 14.2859 -7.37174 -0.206336 0.0462048 0.000530889 0.662642 2.17155 -8.64292 0.327841 0.510985 10.3675 0.0254357 -0.772081 8.49522 1.19821 -22.7103 1.09055 -0.294222 -43.2388 -27.1968 -16.3559 -6.80631 43.5038 -0.868179 12.5993 8.95075 -3.87345 32.8237 4.314 6.98363 24.117 -39.7891 0.747338 2.38339 35.8816 5.2043 -42.723 9.54818 -4.49617 19.3143 3.41197 11.3745 -1.67339 10.5359 -4.93043 -14.8161 -4.90698 0.370449 -1.32991e-009 8.75243e-006 -1.47218e-008 
-8.71548 104.927 38.9109 2.85188 4.92108 178.959 -10.1058 7.8478 -8.64646 0.906156 8.81776 -9.93227 14.2049 -7.37798 -0.205242 0.0462048 0.000530889 0.662642 2.12622 -8.6194 0.300984 0.597765 10.3513 -0.0216176 -0.792955 8.49505 1.13182 -22.7268 1.09055 -0.266059 -43.2472 -27.229 -16.401 -6.78078 43.7338 -0.869234 12.7499 8.91142 -4.13898 32.8234 4.31384 7.0008 24.1004 -39.7719 0.718233 2.35586 35.9566 5.27989 -43.0459 9.39039 -4.08739 19.3569 3.42511 11.383 -1.65403 10.5353 -4.96754 -14.8348 -4.90718 0.370449 -1.32991e-009 8.75243e-006 -1.47218e-008 
-8.69914 104.927 38.9097 2.85521 4.9433 178.952 -10.1051 7.86388 -8.65214 0.91723 8.83746 -9.90716 14.2303 -7.3983 -0.203242 0.0462048 0.000530889 0.662642 2.03747 -8.62861 0.286829 0.699834 10.3716 -0.055375 -0.816912 8.45041 1.04512 -22.7401 1.09141 -0.249297 -43.246 -27.2407 -16.4107 -6.76085 43.7427 -0.895033 12.7918 8.9003 -4.21313 32.8324 4.31337 7.00818 24.0982 -39.7874 0.754611 2.36503 35.8859 5.24717 -43.1605 9.28209 -3.8066 19.3683 3.45543 11.385 -1.6492 10.5353 -4.97004 -14.846 -4.89779 0.370444 -1.32991e-009 8.75243e-006 -1.47218e-008 
-8.68287 104.927 38.9016 2.85445 4.96684 178.931 -10.1018 7.87564 -8.64334 0.90653 8.8668 -9.87509 14.2792 -7.42542 -0.200869 0.0462048 0.000530889 0.662642 1.96769 -8.65171 0.285684 0.790472 10.4027 -0.0716122 -0.839238 8.38195 0.93379 -22.7827 1.09704 -0.265957 -43.1894 -27.2317 -16.3855 -6.76952 43.5942 -0.904982 12.8352 8.87973 -4.37716 32.8651 4.31278 6.99662 24.0816 -39.8159 0.796745 2.36114 35.9385 5.20749 -43.0978 9.20169 -3.5925 19.3749 3.49441 11.3881 -1.6464 10.538 -4.95704 -14.8472 -4.90002 0.370445 -1.32991e-009 8.75243e-006 -1.47218e-008 
-8.66524 104.927 38.8855 2.87405 4.98934 178.92 -10.0617 7.89961 -8.61131 0.885153 8.88244 -9.88663 14.2814 -7.4427 -0.198362 0.0462048 0.000530889 0.662642 1.94348 -8.67793 0.277346 0.860735 10.4267 -0.0927844 -0.841107 8.31852 0.827908 -22.8634 1.1074 -0.29161 -43.0726 -27.2088 -16.3358 -6.80749 43.3432 -0.888482 12.9664 8.8338 -4.70996 32.9123 4.31777 6.99662 24.0194 -39.8348 0.778481 2.31579 36.1888 5.2599 -42.9713 9.2093 -3.60672 19.4056 3.52662 11.4016 -1.64211 10.5474 -4.97104 -14.8422 -4.92172 0.370457 -1.32991e-009 8.75243e-006 -1.47218e-008 
-8.64588 104.927 38.8591 2.89994 5.00198 178.917 -10.0099 7.92467 -8.5775 0.867578 8.89222 -9.91882 14.2494 -7.45663 -0.195908 0.0462048 0.000530889 0.662642 1.94221 -8.707 0.250752 0.906619 10.4356 -0.12825 -0.824489 8.25167 0.748491 -22.9348 1.10837 -0.286127 -42.9425 -27.1686 -16.2642 -6.85201 43.0819 -0.886529 13.1406 8.78937 -4.98475 32.9403 4.33133 7.02364 23.9568 -39.8101 0.733786 2.29008 36.4078 5.33133 -42.8551 9.32572 -3.90964 19.4497 3.56029 11.426 -1.64418 10.5464 -5.00708 -14.8481 -4.93959 0.370467 -1.32991e-009 8.75243e-006 -1.47218e-008 
-8.62814 104.927 38.8267 2.90515 5.00643 178.903 -9.98935 7.9364 -8.56243 0.854826 8.91138 -9.92 14.236 -7.47639 -0.193811 0.0462048 0.000530889 0.662642 1.93356 -8.72041 0.213651 0.929235 10.4116 -0.166787 -0.838092 8.16052 0.694937 -22.9582 1.09743 -0.245885 -42.8448 -27.118 -16.1778 -6.88076 42.9599 -0.924424 13.263 8.77761 -4.99098 32.932 4.34126 7.05124 23.9706 -39.7406 0.738844 2.34263 36.4116 5.28764 -42.7563 9.44456 -4.22154 19.4719 3.61122 11.4457 -1.66101 10.5129 -5.01994 -14.8636 -4.93314 0.370463 -1.32991e-009 8.75243e-006 -1.47218e-008 
-8.61594 104.927 38.796 2.89062 5.00874 178.874 -10.0004 7.94799 -8.56209 0.844055 8.91445 -9.89129 14.2596 -7.48704 -0.192576 0.0462048 0.000530889 0.662642 1.9186 -8.70803 0.180634 0.939885 10.3565 -0.198114 -0.904845 8.06075 0.656454 -22.9585 1.08537 -0.204674 -42.7868 -27.0775 -16.1074 -6.89812 43.0049 -0.961073 13.3056 8.79478 -4.79499 32.9142 4.34166 7.05614 24.0388 -39.6868 0.780467 2.41403 36.323 5.16855 -42.7384 9.45168 -4.23994 19.4607 3.66768 11.4437 -1.67291 10.467 -4.99086 -14.8683 -4.91467 0.370453 -1.32991e-009 8.75243e-006 -1.47218e-008 
-8.61089 104.927 38.7673 2.87616 5.00147 178.847 -10.0154 7.96892 -8.56328 0.837398 8.87637 -9.86882 14.2939 -7.4764 -0.19156 0.0462048 0.000530889 0.662642 1.91564 -8.71196 0.162708 0.956811 10.3229 -0.220716 -0.960408 7.9853 0.611668 -22.9735 1.08253 -0.19318 -42.7608 -27.0524 -16.0835 -6.92563 43.0579 -0.947532 13.3071 8.81509 -4.60455 32.9218 4.3406 7.04832 24.0609 -39.6943 0.78502 2.4096 36.3665 5.13327 -42.9323 9.36329 -4.01216 19.437 3.70383 11.4247 -1.66835 10.4344 -4.94324 -14.8659 -4.90899 0.37045 -1.32991e-009 8.75243e-006 -1.47218e-008 
-8.61246 104.927 38.7342 2.86615 4.97559 178.823 -10.0284 7.97888 -8.56601 0.835101 8.82922 -9.85381 14.3133 -7.46193 -0.190746 0.0462048 0.000530889 0.662642 1.91878 -8.77256 0.158293 0.999676 10.3511 -0.239703 -0.940769 7.9347 0.551934 -22.9929 1.08892 -0.212693 -42.7715 -27.0341 -16.0939 -6.95809 43.0086 -0.907023 13.295 8.83053 -4.47045 32.9415 4.33764 7.03955 24.0211 -39.7247 0.757501 2.34747 36.5621 5.19866 -43.3173 9.28449 -3.81937 19.4197 3.71975 11.4112 -1.66827 10.4124 -4.90031 -14.8782 -4.92044 0.370456 -1.32991e-009 8.75243e-006 -1.47218e-008 
